<?xml version="1.0" standalone="no"?>
<!DOCTYPE svg PUBLIC "-//W3C//DTD SVG 20010904//EN"
 "http://www.w3.org/TR/2001/REC-SVG-20010904/DTD/svg10.dtd">
<svg version="1.0" xmlns="http://www.w3.org/2000/svg"
 width="564.000000pt" height="420.000000pt" viewBox="0 0 564.000000 420.000000"
 preserveAspectRatio="xMidYMid meet">
<metadata>
Created by potrace 1.15, written by Peter Selinger 2001-2017
</metadata>
<g transform="translate(0.000000,420.000000) scale(0.100000,-0.100000)"
fill="#000000" stroke="none">
<path d="M3784 2686 c-47 -21 -99 -71 -119 -116 l-18 -40 -394 0 c-253 0 -401
-4 -414 -10 -12 -7 -19 -21 -19 -39 0 -31 22 -57 40 -46 5 3 10 1 10 -4 0 -7
33 -10 93 -9 l92 2 -85 3 c-91 4 -114 14 -105 47 5 19 5 19 -5 3 -6 -9 -8 -22
-5 -27 3 -6 2 -10 -3 -10 -19 0 -22 33 -6 51 15 16 40 18 285 19 l269 1 0 -42
c0 -32 -3 -40 -15 -35 -8 3 -15 1 -15 -4 0 -6 56 -10 138 -10 l139 0 18 -39
c63 -140 257 -179 368 -73 119 113 84 314 -65 376 -45 19 -142 20 -184 2z
m172 -130 c29 -29 34 -41 34 -81 0 -40 -5 -52 -34 -81 -29 -29 -41 -34 -81
-34 -40 0 -52 5 -81 34 -29 29 -34 41 -34 81 0 40 5 52 34 81 29 29 41 34 81
34 40 0 52 -5 81 -34z"/>
<path d="M2186 2539 c-74 -12 -169 -63 -215 -115 -68 -78 -83 -132 -89 -334
-5 -195 7 -319 37 -378 32 -63 152 -165 166 -142 9 15 -3 30 -20 24 -7 -3 -27
5 -44 17 -36 27 -33 39 3 15 30 -19 48 -22 22 -3 -16 12 -15 14 7 36 16 14 27
19 32 12 3 -6 0 -11 -7 -11 -8 0 -6 -5 5 -11 9 -5 21 -8 26 -5 5 3 14 0 20 -8
33 -40 269 -43 318 -4 12 9 46 -4 69 -26 14 -15 -10 -40 -29 -30 -9 5 -9 4 0
-6 9 -10 20 -6 55 21 47 36 58 49 58 64 0 6 -3 6 -8 0 -6 -9 -17 -11 -37 -6
-3 0 0 7 7 15 7 8 16 12 21 9 9 -5 9 11 0 20 -3 4 -13 -2 -20 -13 -8 -11 -18
-18 -22 -16 -4 3 -8 -1 -8 -9 0 -8 4 -12 9 -9 4 3 8 1 8 -4 0 -16 -30 -23 -51
-12 -24 13 -25 22 -2 18 12 -2 18 4 18 17 0 11 7 21 15 21 8 1 19 2 24 3 5 0
2 9 -5 18 -10 11 -10 14 -1 9 8 -5 12 -1 12 10 0 17 1 17 13 0 12 -16 13 -16
14 3 1 12 -3 21 -8 21 -6 0 -6 7 1 20 10 18 14 394 5 501 -3 42 -1 48 26 68
16 12 28 18 27 14 -1 -4 5 -21 15 -38 23 -41 21 -26 -4 32 -63 149 -253 228
-463 192z m220 -124 c64 -19 113 -60 144 -121 24 -48 25 -55 25 -259 0 -153
-4 -221 -14 -249 -21 -60 -84 -122 -144 -143 -68 -23 -207 -23 -260 0 -21 9
-43 15 -50 13 -6 -1 -9 -1 -6 1 3 2 -13 23 -36 46 -58 59 -68 110 -63 357 3
215 10 240 76 303 65 62 215 86 328 52z"/>
<path d="M1546 2518 c-14 -20 -16 -83 -16 -494 0 -511 -2 -494 54 -501 51 -7
50 -18 47 459 -1 243 -5 445 -8 448 -2 3 -3 -195 -2 -438 2 -374 0 -445 -12
-453 -22 -14 -29 -11 -22 9 6 15 5 16 -12 2 -11 -9 -16 -10 -11 -2 4 6 2 12
-4 12 -7 0 -10 138 -10 470 1 263 5 469 10 467 5 -1 15 6 22 16 18 24 51 13
43 -14 -4 -11 -2 -19 4 -19 15 0 14 33 -1 48 -20 20 -65 14 -82 -10z"/>
<path d="M3128 2411 c-5 -18 -7 -220 -5 -448 2 -397 3 -415 21 -429 28 -20 63
-17 86 6 19 19 20 32 18 423 l-3 402 -2 -402 -3 -403 -26 -16 c-20 -13 -30
-15 -49 -6 l-25 11 -2 448 c-2 247 -6 433 -10 414z"/>
<path d="M3607 1824 c-4 -4 -7 -71 -7 -150 0 -131 1 -142 19 -147 32 -8 176
-6 190 3 30 18 -3 30 -84 30 l-84 0 -3 132 c-3 122 -10 153 -31 132z"/>
<path d="M3855 1819 c-4 -6 14 -38 41 -72 26 -34 47 -66 47 -72 0 -6 -21 -38
-47 -72 -42 -54 -52 -83 -27 -83 4 0 29 29 55 65 26 36 49 65 51 65 1 0 24
-29 51 -65 46 -61 74 -81 74 -52 0 7 -23 40 -51 75 -30 38 -47 67 -43 75 4 6
27 37 51 68 24 30 43 61 43 67 0 28 -28 7 -74 -53 -27 -36 -50 -65 -51 -65 -2
0 -25 29 -51 65 -49 66 -58 73 -69 54z"/>
</g>
</svg>
